<svg width="62" height="62" viewBox="0 0 62 62" fill="none" xmlns="http://www.w3.org/2000/svg">
<rect width="62" height="62" rx="5" fill="#088869"/>
<path d="M35.1356 22.1048C35.1356 21.5605 35.3446 21.0384 35.7164 20.6535C36.0883 20.2686 36.5927 20.0524 37.1187 20.0524H47.695C48.2209 20.0524 48.7253 20.2686 49.0972 20.6535C49.4691 21.0384 49.678 21.5605 49.678 22.1048C49.678 22.6492 49.4691 23.1712 49.0972 23.5561C48.7253 23.941 48.2209 24.1572 47.695 24.1572H37.1187C36.5927 24.1572 36.0883 23.941 35.7164 23.5561C35.3446 23.1712 35.1356 22.6492 35.1356 22.1048ZM31.8305 36.1296C31.8305 37.1628 31.6339 38.1859 31.2519 39.1404C30.8699 40.0949 30.3099 40.9623 29.6041 41.6928C28.8982 42.4234 28.0602 43.0029 27.1379 43.3983C26.2156 43.7937 25.2271 43.9972 24.2288 43.9972H13.9831C13.4571 43.9972 12.9527 43.781 12.5809 43.3961C12.209 43.0112 12 42.4891 12 41.9448V20.0524C12 19.5081 12.209 18.986 12.5809 18.6011C12.9527 18.2162 13.4571 18 13.9831 18H22.2458C23.5118 18.0011 24.7533 18.3606 25.8361 19.0395C26.9188 19.7184 27.8016 20.6909 28.3887 21.8517C28.9759 23.0125 29.2451 24.3174 29.1673 25.6252C29.0894 26.9329 28.6675 28.1937 27.9471 29.2712C29.1245 29.9545 30.1048 30.95 30.7873 32.1554C31.4698 33.3608 31.8299 34.7325 31.8305 36.1296ZM15.9661 28.2621H22.2458C23.0347 28.2621 23.7913 27.9377 24.3491 27.3603C24.907 26.783 25.2204 25.9999 25.2204 25.1834C25.2204 24.3669 24.907 23.5839 24.3491 23.0065C23.7913 22.4292 23.0347 22.1048 22.2458 22.1048H15.9661V28.2621ZM27.8644 36.1296C27.8601 35.1331 27.4757 34.1786 26.7948 33.4739C26.1139 32.7692 25.1917 32.3714 24.2288 32.3669H15.9661V39.8924H24.2288C25.1917 39.8879 26.1139 39.49 26.7948 38.7853C27.4757 38.0806 27.8601 37.1262 27.8644 36.1296ZM51 35.1034C51 35.6478 50.7911 36.1698 50.4192 36.5547C50.0473 36.9396 49.5429 37.1558 49.017 37.1558H38.2259C38.6012 37.9747 39.1933 38.6665 39.9333 39.1509C40.6734 39.6353 41.5311 39.8924 42.4068 39.8924C43.1058 39.8984 43.7964 39.7344 44.4229 39.4135C44.8963 39.1753 45.4416 39.1416 45.939 39.3196C46.4364 39.4976 46.8451 39.8728 47.0752 40.3627C47.3053 40.8526 47.338 41.4171 47.166 41.9319C46.994 42.4467 46.6314 42.8697 46.1581 43.1078C44.4801 43.9505 42.5827 44.2052 40.7524 43.8336C38.9222 43.462 37.2585 42.4841 36.0125 41.0477C34.7665 39.6113 34.0058 37.7943 33.8454 35.8711C33.685 33.9479 34.1335 32.0229 35.1233 30.3867C36.113 28.7506 37.5902 27.4921 39.3318 26.8013C41.0735 26.1106 42.985 26.0251 44.7777 26.5576C46.5704 27.0902 48.1471 28.212 49.2696 29.7537C50.3921 31.2953 50.9994 33.1731 51 35.1034ZM46.5877 33.051C46.2125 32.232 45.6205 31.5401 44.8804 31.0556C44.1403 30.571 43.2825 30.3138 42.4068 30.3138C41.5311 30.3138 40.6733 30.571 39.9332 31.0556C39.1931 31.5401 38.6011 32.232 38.2259 33.051H46.5877Z" fill="white"/>
</svg>
