<svg width="116" height="166" viewBox="0 0 116 166" fill="none" xmlns="http://www.w3.org/2000/svg">
<g id="Frame 108">
<g id="Group 60">
<circle id="Ellipse 1" cx="34" cy="132.577" r="24" fill="black"/>
<g id="Group 59">
<rect id="Rectangle 26" x="13" y="16.5767" width="89" height="85" fill="black"/>
<path id="Vector" d="M105.046 58.4288C110.015 53.9081 113.498 47.9925 115.037 41.4592C116.577 34.9259 116.101 28.0805 113.672 21.8223C111.243 15.5641 106.974 10.1858 101.427 6.39402C95.8794 2.60223 89.313 0.574308 82.59 0.576662H33.3328C26.6098 0.574308 20.0434 2.60223 14.4961 6.39402C8.94887 10.1858 4.68028 15.5641 2.25113 21.8223C-0.178015 28.0805 -0.654092 34.9259 0.885445 41.4592C2.42498 47.9925 5.90812 53.9081 10.8773 58.4288C7.45065 61.5462 4.71335 65.3431 2.84039 69.5768C0.967422 73.8105 1.21107e-05 78.3877 1.21107e-05 83.0159C1.21107e-05 87.6441 0.967422 92.2214 2.84039 96.4551C4.71335 100.689 7.45065 104.486 10.8773 107.603C6.78134 111.333 3.68234 116.024 1.86107 121.252C0.039794 126.479 -0.446197 132.077 0.447126 137.54C1.34045 143.002 3.58485 148.156 6.97698 152.533C10.3691 156.911 14.8018 160.374 19.8733 162.61C24.9448 164.846 30.495 165.783 36.0209 165.336C41.5467 164.89 46.8737 163.074 51.5191 160.053C56.1645 157.032 59.9815 152.902 62.6243 148.037C65.2671 143.172 66.6521 137.725 66.6538 132.19V112.231C71.5343 114.913 77.0194 116.306 82.59 116.281C89.313 116.283 95.8794 114.255 101.427 110.464C106.974 106.672 111.243 101.293 113.672 95.0353C116.101 88.7771 116.577 81.9317 115.037 75.3984C113.498 68.8651 110.015 62.9495 105.046 58.4288ZM98.5262 33.8416C98.5071 38.0552 96.822 42.0908 93.8375 45.0702C90.853 48.0497 86.8107 49.7319 82.59 49.751H66.6538V17.9323H82.59C86.8107 17.9513 90.853 19.6336 93.8375 22.6131C96.822 25.5925 98.5071 29.6281 98.5262 33.8416ZM17.3966 33.8416C17.4157 29.6281 19.1008 25.5925 22.0853 22.6131C25.0697 19.6336 29.1121 17.9513 33.3328 17.9323H49.2689V49.751H33.3328C29.1121 49.7319 25.0697 48.0497 22.0853 45.0702C19.1008 42.0908 17.4157 38.0552 17.3966 33.8416ZM17.3966 83.0159C17.4157 78.8024 19.1008 74.7668 22.0853 71.7874C25.0697 68.8079 29.1121 67.1256 33.3328 67.1066H49.2689V98.9253H33.3328C29.1121 98.9063 25.0697 97.224 22.0853 94.2445C19.1008 91.2651 17.4157 87.2295 17.3966 83.0159ZM49.2689 132.19C49.2689 135.337 48.3343 138.413 46.5832 141.029C44.8321 143.645 42.3432 145.684 39.4313 146.889C36.5193 148.093 33.3151 148.408 30.2238 147.794C27.1325 147.18 24.2929 145.665 22.0642 143.44C19.8355 141.215 18.3177 138.38 17.7028 135.294C17.0879 132.208 17.4035 129.009 18.6097 126.102C19.8158 123.195 21.8584 120.71 24.4791 118.962C27.0998 117.214 30.1809 116.281 33.3328 116.281H49.2689V132.19ZM82.59 98.9253C78.3635 98.9253 74.3101 97.2491 71.3214 94.2655C68.3328 91.282 66.6538 87.2354 66.6538 83.0159C66.6538 78.7965 68.3328 74.7499 71.3214 71.7663C74.3101 68.7828 78.3635 67.1066 82.59 67.1066C86.8166 67.1066 90.87 68.7828 93.8586 71.7663C96.8472 74.7499 98.5262 78.7965 98.5262 83.0159C98.5262 87.2354 96.8472 91.282 93.8586 94.2655C90.87 97.2491 86.8166 98.9253 82.59 98.9253Z" fill="white"/>
</g>
</g>
</g>
</svg>
