<svg width="62" height="62" viewBox="0 0 62 62" fill="none" xmlns="http://www.w3.org/2000/svg">
<rect width="62" height="62" rx="5" fill="#088869"/>
<path d="M21.3453 17.7794C21.3448 18.7813 20.9574 19.7419 20.2683 20.45C19.5792 21.1581 18.6448 21.5556 17.6708 21.5551C16.6968 21.5546 15.7628 21.1561 15.0744 20.4473C14.386 19.7385 13.9995 18.7775 14 17.7756C14.0005 16.7737 14.3879 15.8131 15.077 15.105C15.7661 14.397 16.7004 13.9994 17.6745 13.9999C18.6485 14.0004 19.5825 14.3989 20.2709 15.1077C20.9593 15.8165 21.3457 16.7775 21.3453 17.7794ZM21.4554 24.3524H14.1102V47.9999H21.4554V24.3524ZM33.0609 24.3524H25.7524V47.9999H32.9874V35.5906C32.9874 28.6777 41.7466 28.0355 41.7466 35.5906V47.9999H49V33.0219C49 21.3681 36.0357 21.8025 32.9874 27.5255L33.0609 24.3524Z" fill="white"/>
</svg>
