<svg xmlns="http://www.w3.org/2000/svg" width="116" height="166" fill="none" viewBox="0 0 116 166">
  <circle cx="34" cy="132.577" r="24" fill="#fff"/>
  <path fill="#fff" d="M13 16.577h89v85H13z"/>
  <path fill="#088869" d="M105.046 58.429a33.25 33.25 0 0 0 9.991-16.97 33.21 33.21 0 0 0-1.365-19.637 33.275 33.275 0 0 0-12.245-15.428A33.362 33.362 0 0 0 82.59.577H33.333a33.36 33.36 0 0 0-18.837 5.817A33.275 33.275 0 0 0 2.251 21.822 33.212 33.212 0 0 0 .885 41.46a33.253 33.253 0 0 0 9.992 16.97A33.266 33.266 0 0 0 2.84 69.577a33.217 33.217 0 0 0 0 26.878 33.26 33.26 0 0 0 8.037 11.148 33.26 33.26 0 0 0-9.016 13.649 33.21 33.21 0 0 0 5.116 31.281 33.314 33.314 0 0 0 12.896 10.077 33.36 33.36 0 0 0 31.646-2.557 33.29 33.29 0 0 0 11.105-12.016 33.219 33.219 0 0 0 4.03-15.847v-19.959a32.784 32.784 0 0 0 15.936 4.05 33.37 33.37 0 0 0 18.837-5.817 33.28 33.28 0 0 0 12.245-15.429 33.21 33.21 0 0 0 1.365-19.637 33.25 33.25 0 0 0-9.991-16.97Zm-6.52-24.587a15.968 15.968 0 0 1-4.688 11.228 16.022 16.022 0 0 1-11.248 4.681H66.654V17.932H82.59a16.022 16.022 0 0 1 11.248 4.681 15.968 15.968 0 0 1 4.688 11.229Zm-81.13 0a15.968 15.968 0 0 1 4.69-11.229 16.022 16.022 0 0 1 11.247-4.68h15.936V49.75H33.333a16.022 16.022 0 0 1-11.248-4.68 15.968 15.968 0 0 1-4.688-11.23Zm0 49.174a15.968 15.968 0 0 1 4.69-11.229 16.022 16.022 0 0 1 11.247-4.68h15.936v31.818H33.333a16.022 16.022 0 0 1-11.248-4.68 15.968 15.968 0 0 1-4.688-11.23ZM49.27 132.19a15.89 15.89 0 0 1-2.686 8.839 15.939 15.939 0 0 1-16.36 6.765 15.945 15.945 0 0 1-8.159-4.354 15.884 15.884 0 0 1-3.454-17.338 15.914 15.914 0 0 1 5.87-7.14 15.956 15.956 0 0 1 8.853-2.681H49.27v15.909Zm33.32-33.265a15.95 15.95 0 0 1-11.269-4.66 15.896 15.896 0 0 1-4.667-11.25c0-4.219 1.679-8.265 4.667-11.249a15.95 15.95 0 0 1 11.269-4.66 15.95 15.95 0 0 1 11.269 4.66 15.896 15.896 0 0 1 4.667 11.25c0 4.22-1.679 8.266-4.667 11.25a15.95 15.95 0 0 1-11.269 4.66Z"/>
</svg>
