<svg width="26" height="26" viewBox="0 0 26 26" fill="none" xmlns="http://www.w3.org/2000/svg">
<path d="M11.9937 3.46216C12.2934 2.53963 13.5985 2.53963 13.8983 3.46216L15.5313 8.48802C15.6653 8.90059 16.0498 9.17992 16.4836 9.17992H21.7681C22.7381 9.17992 23.1414 10.4212 22.3567 10.9913L18.0814 14.0975C17.7305 14.3525 17.5836 14.8044 17.7177 15.217L19.3507 20.2428C19.6504 21.1654 18.5945 21.9325 17.8098 21.3624L13.5345 18.2562C13.1836 18.0012 12.7084 18.0012 12.3574 18.2562L8.08216 21.3624C7.29741 21.9325 6.24154 21.1654 6.54129 20.2428L8.17429 15.217C8.30834 14.8044 8.16149 14.3525 7.81054 14.0975L3.53528 10.9913C2.75054 10.4212 3.15384 9.17992 4.12384 9.17992H9.40835C9.84215 9.17992 10.2266 8.90059 10.3607 8.48802L11.9937 3.46216Z" fill="#C36723"/>
</svg>
