<svg width="62" height="62" fill="none" xmlns="http://www.w3.org/2000/svg"><rect width="62" height="62" rx="5" fill="#088869"/><path d="M35.136 22.105c0-.544.209-1.067.58-1.451a1.95 1.95 0 0 1 1.403-.602h10.576c.526 0 1.03.217 1.402.602.372.384.581.907.581 1.45a2.09 2.09 0 0 1-.58 1.452 1.95 1.95 0 0 1-1.403.601H37.119a1.95 1.95 0 0 1-1.403-.6 2.09 2.09 0 0 1-.58-1.452ZM31.83 36.13a8.107 8.107 0 0 1-.578 3.01 7.892 7.892 0 0 1-1.648 2.553 7.59 7.59 0 0 1-2.466 1.705 7.38 7.38 0 0 1-2.91.6H13.984a1.95 1.95 0 0 1-1.402-.602A2.09 2.09 0 0 1 12 41.945V20.052c0-.544.209-1.066.58-1.45A1.95 1.95 0 0 1 13.984 18h8.263a6.765 6.765 0 0 1 3.59 1.04 7.089 7.089 0 0 1 2.553 2.812 7.394 7.394 0 0 1-.442 7.42 7.731 7.731 0 0 1 2.84 2.883 8.079 8.079 0 0 1 1.044 3.975Zm-15.864-7.868h6.28c.789 0 1.545-.324 2.103-.902.558-.577.871-1.36.871-2.177 0-.816-.313-1.6-.87-2.177a2.925 2.925 0 0 0-2.104-.901h-6.28v6.157Zm11.898 7.868a3.847 3.847 0 0 0-1.07-2.656 3.591 3.591 0 0 0-2.565-1.107h-8.263v7.525h8.263a3.591 3.591 0 0 0 2.566-1.107 3.847 3.847 0 0 0 1.07-2.655ZM51 35.103a2.09 2.09 0 0 1-.58 1.452 1.95 1.95 0 0 1-1.403.6H38.226a4.74 4.74 0 0 0 1.707 1.996c.74.484 1.598.741 2.474.741a4.338 4.338 0 0 0 2.016-.479 1.923 1.923 0 0 1 1.516-.093c.497.178.906.553 1.136 1.043.23.49.263 1.054.091 1.569a2.032 2.032 0 0 1-1.008 1.176 8.332 8.332 0 0 1-5.406.726 8.527 8.527 0 0 1-4.74-2.786 9.05 9.05 0 0 1-2.167-5.177 9.14 9.14 0 0 1 1.278-5.484 8.666 8.666 0 0 1 4.209-3.586 8.32 8.32 0 0 1 5.446-.243 8.594 8.594 0 0 1 4.492 3.196 9.1 9.1 0 0 1 1.73 5.35Zm-4.412-2.052a4.74 4.74 0 0 0-1.708-1.995 4.513 4.513 0 0 0-2.473-.742c-.876 0-1.734.257-2.474.742a4.74 4.74 0 0 0-1.707 1.995h8.362Z" fill="#fff"/></svg>