<svg width="62" height="62" fill="none" xmlns="http://www.w3.org/2000/svg"><rect width="62" height="62" rx="5" fill="#088869"/><path d="M48 31a16.946 16.946 0 0 1-5.006 12.047A16.946 16.946 0 0 1 31 48c-9.39 0-17-7.61-17-17a16.943 16.943 0 0 1 4.675-11.709A16.952 16.952 0 0 1 31 14a16.945 16.945 0 0 1 11.994 4.953A16.947 16.947 0 0 1 48 31Z" stroke="#fff" stroke-width="3" stroke-linecap="round" stroke-linejoin="round"/><path d="M48 31c-2.48 0-9.323-.935-15.447 1.754-6.653 2.921-11.47 7.452-13.57 10.271" stroke="#fff" stroke-width="3" stroke-linecap="round" stroke-linejoin="round"/><path d="M24.625 15.236c2.66 2.456 8.466 8.707 10.625 14.914 2.159 6.207 2.958 13.838 3.451 16.01" stroke="#fff" stroke-width="3" stroke-linecap="round" stroke-linejoin="round"/><path d="M14.13 28.875c3.212.194 11.713.368 17.153-1.955 5.44-2.323 10.121-6.596 11.727-7.952M15.275 37.471a17.065 17.065 0 0 0 7.65 8.492" stroke="#fff" stroke-width="3" stroke-linecap="round" stroke-linejoin="round"/><path d="M14 31a16.943 16.943 0 0 1 4.675-11.709A16.952 16.952 0 0 1 31 14m6.8 1.414a17.03 17.03 0 0 1 5.194 3.539A16.947 16.947 0 0 1 48 31a16.95 16.95 0 0 1-1.071 5.95M31 48a16.947 16.947 0 0 0 11.994-4.953" stroke="#fff" stroke-width="3" stroke-linecap="round" stroke-linejoin="round"/></svg>