<svg width="62" height="62" fill="none" xmlns="http://www.w3.org/2000/svg"><rect width="62" height="62" rx="5" fill="#088869"/><path d="M23.86 14h14.28c5.44 0 9.86 4.42 9.86 9.86v14.28A9.86 9.86 0 0 1 38.14 48H23.86C18.42 48 14 43.58 14 38.14V23.86A9.86 9.86 0 0 1 23.86 14Zm-.34 3.4a6.12 6.12 0 0 0-6.12 6.12v14.96a6.116 6.116 0 0 0 6.12 6.12h14.96a6.12 6.12 0 0 0 6.12-6.12V23.52a6.116 6.116 0 0 0-6.12-6.12H23.52Zm16.405 2.55a2.125 2.125 0 1 1 0 4.25 2.125 2.125 0 0 1 0-4.25ZM31 22.5a8.5 8.5 0 1 1 0 17 8.5 8.5 0 0 1 0-17Zm0 3.4a5.1 5.1 0 1 0 0 10.2 5.1 5.1 0 0 0 0-10.2Z" fill="#fff"/></svg>