<svg width="62" height="62" fill="none" xmlns="http://www.w3.org/2000/svg"><rect width="62" height="62" rx="5" fill="#088869"/><path d="M21.345 17.78a3.833 3.833 0 0 1-1.077 2.67 3.622 3.622 0 0 1-2.597 1.105 3.622 3.622 0 0 1-2.597-1.108A3.833 3.833 0 0 1 14 17.776c0-1.002.388-1.963 1.077-2.671A3.622 3.622 0 0 1 17.674 14c.974 0 1.909.399 2.597 1.108a3.834 3.834 0 0 1 1.074 2.671Zm.11 6.572H14.11V48h7.345V24.352Zm11.606 0h-7.309V48h7.235V35.59c0-6.912 8.76-7.555 8.76 0V48H49V33.022c0-11.654-12.964-11.22-16.013-5.496l.074-3.174Z" fill="#fff"/></svg>