<svg width="26" height="26" fill="none" xmlns="http://www.w3.org/2000/svg"><path d="M12.049 2.927c.3-.921 1.603-.921 1.902 0l1.743 5.365a1 1 0 0 0 .951.69h5.641c.969 0 1.372 1.24.588 1.81l-4.564 3.315a1 1 0 0 0-.363 1.118l1.743 5.365c.3.922-.755 1.688-1.539 1.118l-4.563-3.315a1 1 0 0 0-1.176 0L7.85 21.708c-.784.57-1.838-.196-1.54-1.118l1.744-5.365a1 1 0 0 0-.363-1.118l-4.564-3.315c-.784-.57-.38-1.81.588-1.81h5.64a1 1 0 0 0 .952-.69l1.743-5.365Z" fill="url('#paint0_linear_118_12')"/><defs><linearGradient id="paint0_linear_118_12" x1="13" y1="0" x2="13" y2="17" gradientUnits="userSpaceOnUse"><stop stop-color="#01FD75"/><stop offset="1" stop-color="#016B8B"/></linearGradient></defs></svg>