<svg width="62" height="62" viewBox="0 0 62 62" fill="none" xmlns="http://www.w3.org/2000/svg">
<rect width="62" height="62" rx="5" fill="#088869"/>
<path d="M48 31C48.0029 33.2391 47.562 35.4567 46.7028 37.5244C45.8437 39.5922 44.5832 41.4692 42.9944 43.047C41.4185 44.6201 39.5481 45.8672 37.4901 46.717C35.432 47.5669 33.2267 48.0028 31 48C21.6109 48 14 40.3891 14 31C13.9941 26.641 15.6685 22.4474 18.675 19.2912C20.2614 17.6172 22.1727 16.2845 24.2919 15.3747C26.4112 14.4649 28.6938 13.9971 31 14C33.2267 13.9971 35.432 14.433 37.4901 15.2829C39.5481 16.1327 41.4185 17.3798 42.9944 18.9529C44.5832 20.5307 45.8437 22.4077 46.7028 24.4755C47.562 26.5433 48.0029 28.7608 48 31Z" stroke="white" stroke-width="3" stroke-linecap="round" stroke-linejoin="round"/>
<path d="M48 31C45.5197 31 38.6772 30.065 32.553 32.7536C25.9 35.675 21.0831 40.2064 18.9836 43.025" stroke="white" stroke-width="3" stroke-linecap="round" stroke-linejoin="round"/>
<path d="M24.625 15.2359C27.2855 17.6916 33.091 23.9433 35.25 30.15C37.409 36.3567 38.208 43.988 38.701 46.1598" stroke="white" stroke-width="3" stroke-linecap="round" stroke-linejoin="round"/>
<path d="M14.1309 28.875C17.3422 29.0688 25.8431 29.2431 31.2831 26.92C36.7231 24.597 41.404 20.324 43.0097 18.9683M15.275 37.4711C16.773 41.0971 19.4746 44.0962 22.925 45.9634" stroke="white" stroke-width="3" stroke-linecap="round" stroke-linejoin="round"/>
<path d="M14 31C13.9941 26.641 15.6685 22.4474 18.675 19.2912C20.2614 17.6172 22.1727 16.2845 24.2919 15.3747C26.4112 14.4649 28.6938 13.9971 31 14M37.8 15.4144C39.736 16.2614 41.4975 17.4614 42.9944 18.9529C44.5832 20.5307 45.8437 22.4077 46.7028 24.4755C47.562 26.5433 48.0029 28.7608 48 31C48 33.0927 47.6218 35.0978 46.929 36.95M31 48C33.2267 48.0028 35.432 47.5669 37.4901 46.717C39.5481 45.8672 41.4185 44.6201 42.9944 43.047" stroke="white" stroke-width="3" stroke-linecap="round" stroke-linejoin="round"/>
</svg>
