<svg width="62" height="62" viewBox="0 0 62 62" fill="none" xmlns="http://www.w3.org/2000/svg">
<rect width="62" height="62" rx="5" fill="#088869"/>
<path d="M23.8601 13.9999H38.1401C43.5801 13.9999 48.0001 18.4199 48.0001 23.8599V38.1399C48.0001 40.755 46.9612 43.2629 45.1121 45.112C43.263 46.9611 40.7551 47.9999 38.1401 47.9999H23.8601C18.4201 47.9999 14.0001 43.5799 14.0001 38.1399V23.8599C14.0001 21.2449 15.0389 18.737 16.888 16.8879C18.7371 15.0388 21.245 13.9999 23.8601 13.9999ZM23.5201 17.3999C21.8969 17.3999 20.3403 18.0447 19.1926 19.1924C18.0448 20.3402 17.4001 21.8968 17.4001 23.5199V38.4799C17.4001 41.8629 20.1371 44.5999 23.5201 44.5999H38.4801C40.1032 44.5999 41.6598 43.9552 42.8076 42.8074C43.9553 41.6597 44.6001 40.1031 44.6001 38.4799V23.5199C44.6001 20.1369 41.8631 17.3999 38.4801 17.3999H23.5201ZM39.9251 19.9499C40.4886 19.9499 41.0292 20.1738 41.4277 20.5723C41.8262 20.9709 42.0501 21.5114 42.0501 22.0749C42.0501 22.6385 41.8262 23.179 41.4277 23.5775C41.0292 23.9761 40.4886 24.1999 39.9251 24.1999C39.3615 24.1999 38.821 23.9761 38.4225 23.5775C38.0239 23.179 37.8001 22.6385 37.8001 22.0749C37.8001 21.5114 38.0239 20.9709 38.4225 20.5723C38.821 20.1738 39.3615 19.9499 39.9251 19.9499ZM31.0001 22.4999C33.2544 22.4999 35.4164 23.3955 37.0105 24.9895C38.6045 26.5836 39.5001 28.7456 39.5001 30.9999C39.5001 33.2543 38.6045 35.4163 37.0105 37.0103C35.4164 38.6044 33.2544 39.4999 31.0001 39.4999C28.7457 39.4999 26.5837 38.6044 24.9897 37.0103C23.3956 35.4163 22.5001 33.2543 22.5001 30.9999C22.5001 28.7456 23.3956 26.5836 24.9897 24.9895C26.5837 23.3955 28.7457 22.4999 31.0001 22.4999ZM31.0001 25.8999C29.6475 25.8999 28.3503 26.4373 27.3938 27.3937C26.4374 28.3501 25.9001 29.6473 25.9001 30.9999C25.9001 32.3525 26.4374 33.6497 27.3938 34.6062C28.3503 35.5626 29.6475 36.0999 31.0001 36.0999C32.3527 36.0999 33.6499 35.5626 34.6063 34.6062C35.5627 33.6497 36.1001 32.3525 36.1001 30.9999C36.1001 29.6473 35.5627 28.3501 34.6063 27.3937C33.6499 26.4373 32.3527 25.8999 31.0001 25.8999Z" fill="white"/>
</svg>
